<?xml version="1.0" encoding="UTF-8"?>
<!DOCTYPE svg PUBLIC "-//W3C//DTD SVG 1.0//EN" "http://www.w3.org/TR/2001/REC-SVG-20010904/DTD/svg10.dtd"><svg contentScriptType="text/ecmascript" width="400" xmlns:xlink="http://www.w3.org/1999/xlink" zoomAndPan="magnify" contentStyleType="text/css" height="450" preserveAspectRatio="xMidYMid meet" xmlns="http://www.w3.org/2000/svg" version="1.0"><text x="20" y="70" style="font-size:14px;fill:black;font-family:Arial" text-anchor="middle">100.0</text><text x="20" y="380" style="font-size:14px;fill:black;font-family:Arial" text-anchor="middle">-100.0</text><text x="20" y="142" style="font-size:14px;fill:black;font-family:Arial" text-anchor="middle">50.0</text><text x="20" y="308" style="font-size:14px;fill:black;font-family:Arial" text-anchor="middle">-50.0</text><text x="67.5" y="231" style="font-size:14px;fill:black;font-family:Arial" text-anchor="middle">-5</text><path style="fill:none;fill-rule:evenodd;stroke:#000000;stroke-width:1px;stroke-linecap:butt;stroke-linejoin:miter;stroke-opacity:1" d="M  84.0,216 L 84.0,235"/><text x="102.5" y="231" style="font-size:14px;fill:black;font-family:Arial" text-anchor="middle">-4</text><path style="fill:none;fill-rule:evenodd;stroke:#000000;stroke-width:1px;stroke-linecap:butt;stroke-linejoin:miter;stroke-opacity:1" d="M  119.0,216 L 119.0,235"/><text x="137.5" y="231" style="font-size:14px;fill:black;font-family:Arial" text-anchor="middle">-3</text><path style="fill:none;fill-rule:evenodd;stroke:#000000;stroke-width:1px;stroke-linecap:butt;stroke-linejoin:miter;stroke-opacity:1" d="M  154.0,216 L 154.0,235"/><text x="172.5" y="231" style="font-size:14px;fill:black;font-family:Arial" text-anchor="middle">-2</text><path style="fill:none;fill-rule:evenodd;stroke:#000000;stroke-width:1px;stroke-linecap:butt;stroke-linejoin:miter;stroke-opacity:1" d="M  189.0,216 L 189.0,235"/><text x="207.5" y="231" style="font-size:14px;fill:black;font-family:Arial" text-anchor="middle">-1</text><path style="fill:none;fill-rule:evenodd;stroke:#000000;stroke-width:1px;stroke-linecap:butt;stroke-linejoin:miter;stroke-opacity:1" d="M  224.0,216 L 224.0,235"/><text x="242.5" y="231" style="font-size:14px;fill:black;font-family:Arial" text-anchor="middle">0</text><path style="fill:none;fill-rule:evenodd;stroke:#000000;stroke-width:1px;stroke-linecap:butt;stroke-linejoin:miter;stroke-opacity:1" d="M  259.0,216 L 259.0,235"/><text x="277.5" y="231" style="font-size:14px;fill:black;font-family:Arial" text-anchor="middle">1</text><path style="fill:none;fill-rule:evenodd;stroke:#000000;stroke-width:1px;stroke-linecap:butt;stroke-linejoin:miter;stroke-opacity:1" d="M  294.0,216 L 294.0,235"/><text x="312.5" y="231" style="font-size:14px;fill:black;font-family:Arial" text-anchor="middle">2</text><path style="fill:none;fill-rule:evenodd;stroke:#000000;stroke-width:1px;stroke-linecap:butt;stroke-linejoin:miter;stroke-opacity:1" d="M  329.0,216 L 329.0,235"/><text x="347.5" y="231" style="font-size:14px;fill:black;font-family:Arial" text-anchor="middle">3</text><path style="fill:none;fill-rule:evenodd;stroke:#000000;stroke-width:1px;stroke-linecap:butt;stroke-linejoin:miter;stroke-opacity:1" d="M  364.0,216 L 364.0,235"/><text x="382.5" y="231" style="font-size:14px;fill:black;font-family:Arial" text-anchor="middle">4</text><path style="fill:none;fill-rule:evenodd;stroke:#000000;stroke-width:1px;stroke-linecap:butt;stroke-linejoin:miter;stroke-opacity:1" d="M  399.0,216 L 399.0,235"/><rect width="1" x="49" height="350" y="50" style="fill:black"/><rect width="350.0" x="49" height="1" y="216" style="fill:black"/><rect width="350.0" x="49" height="1" y="235" style="fill:black"/><path style="fill:none;fill-rule:evenodd;stroke:#000000;stroke-width:1px;stroke-linecap:butt;stroke-linejoin:miter;stroke-opacity:1" d="M  44.5,54 L 49.5,50 L 54.5,54"/><path style="fill:none;fill-rule:evenodd;stroke:#000000;stroke-width:1px;stroke-linecap:butt;stroke-linejoin:miter;stroke-opacity:1" d="M 44.5,396 L 49.5,400 L 54.5,396"/><path style="fill:none;fill-rule:evenodd;stroke:#000000;stroke-width:1px;stroke-linecap:butt;stroke-linejoin:miter;stroke-opacity:1" d="M  49,70 L 44,70 L 44,70"/><path style="fill:none;fill-rule:evenodd;stroke:#000000;stroke-width:1px;stroke-linecap:butt;stroke-linejoin:miter;stroke-opacity:1" d="M  49,142 L 44,142"/><path style="fill:none;fill-rule:evenodd;stroke:#000000;stroke-width:1px;stroke-linecap:butt;stroke-linejoin:miter;stroke-opacity:1" d="M  49,380 L 44,380"/><path style="fill:none;fill-rule:evenodd;stroke:#000000;stroke-width:1px;stroke-linecap:butt;stroke-linejoin:miter;stroke-opacity:1" d="M  49,308 L 44,308"/><text x="-225" y="15" style="font-size:14px;fill:black;font-family:Arial" transform="matrix(0,-1,1,0,0,0)" text-anchor="middle">P value = 0.5</text><text x="-225" y="35" style="font-size:14px;fill:black;font-family:Arial" transform="matrix(0,-1,1,0,0,0)" text-anchor="middle">% difference</text><text x="58.57752214285714" y="212.0" style="font-size:27px;;fill:red;font-family:Arial" transform="scale(1.1523191410415583,1.0)" text-anchor="middle">E</text><text x="58.57752214285714" y="188.0" style="font-size:27px;;fill:green;font-family:Arial" transform="scale(1.1523191410415583,1.0)" text-anchor="middle">G</text><text x="65.67782785714286" y="164.0" style="font-size:31px;;fill:purple;font-family:Arial" transform="scale(1.0277440987667952,1.0)" text-anchor="middle">Q</text><text x="72.77813357142857" y="137.0" style="font-size:35px;;fill:green;font-family:Arial" transform="scale(0.9274763818139371,1.0)" text-anchor="middle">Y</text><text x="88.95105214285714" y="212.0" style="font-size:27px;;fill:red;font-family:Arial" transform="scale(1.1523191410415583,1.0)" text-anchor="middle">E</text><text x="88.95105214285714" y="188.0" style="font-size:27px;;fill:green;font-family:Arial" transform="scale(1.1523191410415583,1.0)" text-anchor="middle">G</text><text x="97.03751142857143" y="164.0" style="font-size:30px;;fill:blue;font-family:Arial" transform="scale(1.0562925459547616,1.0)" text-anchor="middle">K</text><text x="110.51494357142857" y="138.0" style="font-size:35px;;fill:green;font-family:Arial" transform="scale(0.9274763818139371,1.0)" text-anchor="middle">Y</text><text x="97.62920357142858" y="212.0" style="font-size:21px;;fill:black;font-family:Arial" transform="scale(1.4083900612730156,1.0)" text-anchor="middle">L</text><text x="119.32458214285714" y="192.0" style="font-size:27px;;fill:red;font-family:Arial" transform="scale(1.1523191410415583,1.0)" text-anchor="middle">E</text><text x="122.94047857142856" y="168.0" style="font-size:28px;;fill:black;font-family:Arial" transform="scale(1.1184274015991595,1.0)" text-anchor="middle">V</text><text x="130.17227142857143" y="143.0" style="font-size:30px;;fill:blue;font-family:Arial" transform="scale(1.0562925459547616,1.0)" text-anchor="middle">K</text><text x="163.30703142857143" y="212.0" style="font-size:30px;;fill:blue;font-family:Arial" transform="scale(1.0562925459547616,1.0)" text-anchor="middle">R</text><text x="185.98856357142859" y="186.0" style="font-size:35px;;fill:blue;font-family:Arial" transform="scale(0.9274763818139371,1.0)" text-anchor="middle">H</text><text x="371.97712714285717" y="156.0" style="font-size:76px;;fill:black;font-family:Arial" transform="scale(0.46373819090696855,1.0)" text-anchor="middle">V</text><text x="163.70149285714285" y="212.0" style="font-size:24px;;fill:green;font-family:Arial" transform="scale(1.267551055145714,1.0)" text-anchor="middle">S</text><text x="212.8119407142857" y="190.0" style="font-size:33px;;fill:black;font-family:Arial" transform="scale(0.9750392731890108,1.0)" text-anchor="middle">F</text><text x="480.1910457142857" y="162.0" style="font-size:82px;;fill:blue;font-family:Arial" transform="scale(0.43211967789058436,1.0)" text-anchor="middle">H</text><text x="235.95367785714285" y="212.0" style="font-size:31px;;fill:purple;font-family:Arial" transform="scale(1.0277440987667952,1.0)" text-anchor="middle">Q</text><text x="248.7079307142857" y="185.0" style="font-size:33px;;fill:black;font-family:Arial" transform="scale(0.9750392731890108,1.0)" text-anchor="middle">F</text><text x="261.46218357142857" y="157.0" style="font-size:35px;;fill:green;font-family:Arial" transform="scale(0.9274763818139371,1.0)" text-anchor="middle">Y</text><text x="261.46218357142857" y="127.0" style="font-size:35px;;fill:blue;font-family:Arial" transform="scale(0.9274763818139371,1.0)" text-anchor="middle">H</text><text x="218.92609285714286" y="212.0" style="font-size:24px;;fill:green;font-family:Arial" transform="scale(1.267551055145714,1.0)" text-anchor="middle">S</text><text x="240.81870214285712" y="190.0" style="font-size:27px;;fill:black;font-family:Arial" transform="scale(1.1523191410415583,1.0)" text-anchor="middle">A</text><text x="262.71131142857143" y="166.0" style="font-size:30px;;fill:blue;font-family:Arial" transform="scale(1.0562925459547616,1.0)" text-anchor="middle">K</text><text x="270.0088478571429" y="140.0" style="font-size:31px;;fill:purple;font-family:Arial" transform="scale(1.0277440987667952,1.0)" text-anchor="middle">Q</text><text x="221.88455357142857" y="212.0" style="font-size:21px;;fill:black;font-family:Arial" transform="scale(1.4083900612730156,1.0)" text-anchor="middle">L</text><text x="271.1922321428571" y="192.0" style="font-size:27px;;fill:red;font-family:Arial" transform="scale(1.1523191410415583,1.0)" text-anchor="middle">E</text><text x="295.84607142857146" y="168.0" style="font-size:30px;;fill:blue;font-family:Arial" transform="scale(1.0562925459547616,1.0)" text-anchor="middle">K</text><text x="336.93580357142855" y="142.0" style="font-size:35px;;fill:black;font-family:Arial" transform="scale(0.9274763818139371,1.0)" text-anchor="middle">M</text><text x="246.7356235714286" y="212.0" style="font-size:21px;;fill:black;font-family:Arial" transform="scale(1.4083900612730156,1.0)" text-anchor="middle">L</text><text x="301.5657621428571" y="192.0" style="font-size:27px;;fill:red;font-family:Arial" transform="scale(1.1523191410415583,1.0)" text-anchor="middle">E</text><text x="310.7041185714285" y="168.0" style="font-size:28px;;fill:black;font-family:Arial" transform="scale(1.1184274015991595,1.0)" text-anchor="middle">V</text><text x="338.11918785714283" y="143.0" style="font-size:31px;;fill:red;font-family:Arial" transform="scale(1.0277440987667952,1.0)" text-anchor="middle">D</text><text x="392.29189071428567" y="212.0" style="font-size:33px;;fill:black;font-family:Arial" transform="scale(0.9750392731890108,1.0)" text-anchor="middle">F</text><text x="412.4094235714286" y="184.0" style="font-size:35px;;fill:blue;font-family:Arial" transform="scale(0.9274763818139371,1.0)" text-anchor="middle">H</text><text x="824.8188471428572" y="154.0" style="font-size:76px;;fill:black;font-family:Arial" transform="scale(0.46373819090696855,1.0)" text-anchor="middle">V</text></svg>