<?xml version="1.0" encoding="UTF-8"?>
<!DOCTYPE svg PUBLIC "-//W3C//DTD SVG 1.0//EN" "http://www.w3.org/TR/2001/REC-SVG-20010904/DTD/svg10.dtd"><svg contentScriptType="text/ecmascript" width="400" xmlns:xlink="http://www.w3.org/1999/xlink" zoomAndPan="magnify" contentStyleType="text/css" height="450" preserveAspectRatio="xMidYMid meet" xmlns="http://www.w3.org/2000/svg" version="1.0"><text x="20" y="70" style="font-size:14px;fill:black;font-family:Arial" text-anchor="middle">100.0</text><text x="20" y="380" style="font-size:14px;fill:black;font-family:Arial" text-anchor="middle">-100.0</text><text x="20" y="142" style="font-size:14px;fill:black;font-family:Arial" text-anchor="middle">50.0</text><text x="20" y="308" style="font-size:14px;fill:black;font-family:Arial" text-anchor="middle">-50.0</text><text x="67.5" y="231" style="font-size:14px;fill:black;font-family:Arial" text-anchor="middle">-5</text><path style="fill:none;fill-rule:evenodd;stroke:#000000;stroke-width:1px;stroke-linecap:butt;stroke-linejoin:miter;stroke-opacity:1" d="M  84.0,216 L 84.0,235"/><text x="102.5" y="231" style="font-size:14px;fill:black;font-family:Arial" text-anchor="middle">-4</text><path style="fill:none;fill-rule:evenodd;stroke:#000000;stroke-width:1px;stroke-linecap:butt;stroke-linejoin:miter;stroke-opacity:1" d="M  119.0,216 L 119.0,235"/><text x="137.5" y="231" style="font-size:14px;fill:black;font-family:Arial" text-anchor="middle">-3</text><path style="fill:none;fill-rule:evenodd;stroke:#000000;stroke-width:1px;stroke-linecap:butt;stroke-linejoin:miter;stroke-opacity:1" d="M  154.0,216 L 154.0,235"/><text x="172.5" y="231" style="font-size:14px;fill:black;font-family:Arial" text-anchor="middle">-2</text><path style="fill:none;fill-rule:evenodd;stroke:#000000;stroke-width:1px;stroke-linecap:butt;stroke-linejoin:miter;stroke-opacity:1" d="M  189.0,216 L 189.0,235"/><text x="207.5" y="231" style="font-size:14px;fill:black;font-family:Arial" text-anchor="middle">-1</text><path style="fill:none;fill-rule:evenodd;stroke:#000000;stroke-width:1px;stroke-linecap:butt;stroke-linejoin:miter;stroke-opacity:1" d="M  224.0,216 L 224.0,235"/><text x="242.5" y="231" style="font-size:14px;fill:black;font-family:Arial" text-anchor="middle">0</text><path style="fill:none;fill-rule:evenodd;stroke:#000000;stroke-width:1px;stroke-linecap:butt;stroke-linejoin:miter;stroke-opacity:1" d="M  259.0,216 L 259.0,235"/><text x="277.5" y="231" style="font-size:14px;fill:black;font-family:Arial" text-anchor="middle">1</text><path style="fill:none;fill-rule:evenodd;stroke:#000000;stroke-width:1px;stroke-linecap:butt;stroke-linejoin:miter;stroke-opacity:1" d="M  294.0,216 L 294.0,235"/><text x="312.5" y="231" style="font-size:14px;fill:black;font-family:Arial" text-anchor="middle">2</text><path style="fill:none;fill-rule:evenodd;stroke:#000000;stroke-width:1px;stroke-linecap:butt;stroke-linejoin:miter;stroke-opacity:1" d="M  329.0,216 L 329.0,235"/><text x="347.5" y="231" style="font-size:14px;fill:black;font-family:Arial" text-anchor="middle">3</text><path style="fill:none;fill-rule:evenodd;stroke:#000000;stroke-width:1px;stroke-linecap:butt;stroke-linejoin:miter;stroke-opacity:1" d="M  364.0,216 L 364.0,235"/><text x="382.5" y="231" style="font-size:14px;fill:black;font-family:Arial" text-anchor="middle">4</text><path style="fill:none;fill-rule:evenodd;stroke:#000000;stroke-width:1px;stroke-linecap:butt;stroke-linejoin:miter;stroke-opacity:1" d="M  399.0,216 L 399.0,235"/><rect width="1" x="49" height="350" y="50" style="fill:black"/><rect width="350.0" x="49" height="1" y="216" style="fill:black"/><rect width="350.0" x="49" height="1" y="235" style="fill:black"/><path style="fill:none;fill-rule:evenodd;stroke:#000000;stroke-width:1px;stroke-linecap:butt;stroke-linejoin:miter;stroke-opacity:1" d="M  44.5,54 L 49.5,50 L 54.5,54"/><path style="fill:none;fill-rule:evenodd;stroke:#000000;stroke-width:1px;stroke-linecap:butt;stroke-linejoin:miter;stroke-opacity:1" d="M 44.5,396 L 49.5,400 L 54.5,396"/><path style="fill:none;fill-rule:evenodd;stroke:#000000;stroke-width:1px;stroke-linecap:butt;stroke-linejoin:miter;stroke-opacity:1" d="M  49,70 L 44,70 L 44,70"/><path style="fill:none;fill-rule:evenodd;stroke:#000000;stroke-width:1px;stroke-linecap:butt;stroke-linejoin:miter;stroke-opacity:1" d="M  49,142 L 44,142"/><path style="fill:none;fill-rule:evenodd;stroke:#000000;stroke-width:1px;stroke-linecap:butt;stroke-linejoin:miter;stroke-opacity:1" d="M  49,380 L 44,380"/><path style="fill:none;fill-rule:evenodd;stroke:#000000;stroke-width:1px;stroke-linecap:butt;stroke-linejoin:miter;stroke-opacity:1" d="M  49,308 L 44,308"/><text x="-225" y="15" style="font-size:14px;fill:black;font-family:Arial" transform="matrix(0,-1,1,0,0,0)" text-anchor="middle">P value = 0.5</text><text x="-225" y="35" style="font-size:14px;fill:black;font-family:Arial" transform="matrix(0,-1,1,0,0,0)" text-anchor="middle">% difference</text><text x="312.4134514285714" y="212.0" style="font-size:170px;;fill:black;font-family:Arial" transform="scale(0.21605983894529218,1.0)" text-anchor="middle">V</text><text x="474.4056114285714" y="212.0" style="font-size:170px;;fill:green;font-family:Arial" transform="scale(0.21605983894529218,1.0)" text-anchor="middle">G</text><text x="636.3977714285713" y="212.0" style="font-size:170px;;fill:black;font-family:Arial" transform="scale(0.21605983894529218,1.0)" text-anchor="middle">P</text><text x="807.4625442857142" y="212.0" style="font-size:172px;;fill:purple;font-family:Arial" transform="scale(0.21363220030545743,1.0)" text-anchor="middle">Q</text><text x="965.8388078571428" y="212.0" style="font-size:171px;;fill:blue;font-family:Arial" transform="scale(0.2148391618891041,1.0)" text-anchor="middle">R</text><text x="1154.2598835714286" y="212.0" style="font-size:175px;;fill:black;font-family:Arial" transform="scale(0.21009133510702444,1.0)" text-anchor="middle">F</text><text x="1247.8787292857141" y="212.0" style="font-size:165px;;fill:green;font-family:Arial" transform="scale(0.22237737809573932,1.0)" text-anchor="middle">S</text><text x="1446.3585714285714" y="212.0" style="font-size:170px;;fill:green;font-family:Arial" transform="scale(0.21605983894529218,1.0)" text-anchor="middle">G</text><text x="1590.0740185714287" y="212.0" style="font-size:168px;;fill:black;font-family:Arial" transform="scale(0.21854328536995068,1.0)" text-anchor="middle">A</text><text x="1770.3428914285714" y="212.0" style="font-size:170px;;fill:black;font-family:Arial" transform="scale(0.21605983894529218,1.0)" text-anchor="middle">P</text></svg>