<?xml version="1.0" encoding="UTF-8"?>
<!DOCTYPE svg PUBLIC "-//W3C//DTD SVG 1.0//EN" "http://www.w3.org/TR/2001/REC-SVG-20010904/DTD/svg10.dtd"><svg contentScriptType="text/ecmascript" width="400" xmlns:xlink="http://www.w3.org/1999/xlink" zoomAndPan="magnify" contentStyleType="text/css" height="450" preserveAspectRatio="xMidYMid meet" xmlns="http://www.w3.org/2000/svg" version="1.0"><text x="20" y="70" style="font-size:14px;fill:black;font-family:Arial" text-anchor="middle">100.0</text><text x="20" y="380" style="font-size:14px;fill:black;font-family:Arial" text-anchor="middle">-100.0</text><text x="20" y="142" style="font-size:14px;fill:black;font-family:Arial" text-anchor="middle">50.0</text><text x="20" y="308" style="font-size:14px;fill:black;font-family:Arial" text-anchor="middle">-50.0</text><text x="67.5" y="231" style="font-size:14px;fill:black;font-family:Arial" text-anchor="middle">-5</text><path style="fill:none;fill-rule:evenodd;stroke:#000000;stroke-width:1px;stroke-linecap:butt;stroke-linejoin:miter;stroke-opacity:1" d="M  84.0,216 L 84.0,235"/><text x="102.5" y="231" style="font-size:14px;fill:black;font-family:Arial" text-anchor="middle">-4</text><path style="fill:none;fill-rule:evenodd;stroke:#000000;stroke-width:1px;stroke-linecap:butt;stroke-linejoin:miter;stroke-opacity:1" d="M  119.0,216 L 119.0,235"/><text x="137.5" y="231" style="font-size:14px;fill:black;font-family:Arial" text-anchor="middle">-3</text><path style="fill:none;fill-rule:evenodd;stroke:#000000;stroke-width:1px;stroke-linecap:butt;stroke-linejoin:miter;stroke-opacity:1" d="M  154.0,216 L 154.0,235"/><text x="172.5" y="231" style="font-size:14px;fill:black;font-family:Arial" text-anchor="middle">-2</text><path style="fill:none;fill-rule:evenodd;stroke:#000000;stroke-width:1px;stroke-linecap:butt;stroke-linejoin:miter;stroke-opacity:1" d="M  189.0,216 L 189.0,235"/><text x="207.5" y="231" style="font-size:14px;fill:black;font-family:Arial" text-anchor="middle">-1</text><path style="fill:none;fill-rule:evenodd;stroke:#000000;stroke-width:1px;stroke-linecap:butt;stroke-linejoin:miter;stroke-opacity:1" d="M  224.0,216 L 224.0,235"/><text x="242.5" y="231" style="font-size:14px;fill:black;font-family:Arial" text-anchor="middle">0</text><path style="fill:none;fill-rule:evenodd;stroke:#000000;stroke-width:1px;stroke-linecap:butt;stroke-linejoin:miter;stroke-opacity:1" d="M  259.0,216 L 259.0,235"/><text x="277.5" y="231" style="font-size:14px;fill:black;font-family:Arial" text-anchor="middle">1</text><path style="fill:none;fill-rule:evenodd;stroke:#000000;stroke-width:1px;stroke-linecap:butt;stroke-linejoin:miter;stroke-opacity:1" d="M  294.0,216 L 294.0,235"/><text x="312.5" y="231" style="font-size:14px;fill:black;font-family:Arial" text-anchor="middle">2</text><path style="fill:none;fill-rule:evenodd;stroke:#000000;stroke-width:1px;stroke-linecap:butt;stroke-linejoin:miter;stroke-opacity:1" d="M  329.0,216 L 329.0,235"/><text x="347.5" y="231" style="font-size:14px;fill:black;font-family:Arial" text-anchor="middle">3</text><path style="fill:none;fill-rule:evenodd;stroke:#000000;stroke-width:1px;stroke-linecap:butt;stroke-linejoin:miter;stroke-opacity:1" d="M  364.0,216 L 364.0,235"/><text x="382.5" y="231" style="font-size:14px;fill:black;font-family:Arial" text-anchor="middle">4</text><path style="fill:none;fill-rule:evenodd;stroke:#000000;stroke-width:1px;stroke-linecap:butt;stroke-linejoin:miter;stroke-opacity:1" d="M  399.0,216 L 399.0,235"/><rect width="1" x="49" height="350" y="50" style="fill:black"/><rect width="350.0" x="49" height="1" y="216" style="fill:black"/><rect width="350.0" x="49" height="1" y="235" style="fill:black"/><path style="fill:none;fill-rule:evenodd;stroke:#000000;stroke-width:1px;stroke-linecap:butt;stroke-linejoin:miter;stroke-opacity:1" d="M  44.5,54 L 49.5,50 L 54.5,54"/><path style="fill:none;fill-rule:evenodd;stroke:#000000;stroke-width:1px;stroke-linecap:butt;stroke-linejoin:miter;stroke-opacity:1" d="M 44.5,396 L 49.5,400 L 54.5,396"/><path style="fill:none;fill-rule:evenodd;stroke:#000000;stroke-width:1px;stroke-linecap:butt;stroke-linejoin:miter;stroke-opacity:1" d="M  49,70 L 44,70 L 44,70"/><path style="fill:none;fill-rule:evenodd;stroke:#000000;stroke-width:1px;stroke-linecap:butt;stroke-linejoin:miter;stroke-opacity:1" d="M  49,142 L 44,142"/><path style="fill:none;fill-rule:evenodd;stroke:#000000;stroke-width:1px;stroke-linecap:butt;stroke-linejoin:miter;stroke-opacity:1" d="M  49,380 L 44,380"/><path style="fill:none;fill-rule:evenodd;stroke:#000000;stroke-width:1px;stroke-linecap:butt;stroke-linejoin:miter;stroke-opacity:1" d="M  49,308 L 44,308"/><text x="-225" y="15" style="font-size:14px;fill:black;font-family:Arial" transform="matrix(0,-1,1,0,0,0)" text-anchor="middle">P value = 0.5</text><text x="-225" y="35" style="font-size:14px;fill:black;font-family:Arial" transform="matrix(0,-1,1,0,0,0)" text-anchor="middle">% difference</text><text x="58.57752214285714" y="212.0" style="font-size:27px;;fill:black;font-family:Arial" transform="scale(1.1523191410415583,1.0)" text-anchor="middle">A</text><text x="60.352598571428565" y="188.0" style="font-size:28px;;fill:black;font-family:Arial" transform="scale(1.1184274015991595,1.0)" text-anchor="middle">P</text><text x="63.902751428571435" y="163.0" style="font-size:30px;;fill:blue;font-family:Arial" transform="scale(1.0562925459547616,1.0)" text-anchor="middle">R</text><text x="65.67782785714286" y="137.0" style="font-size:31px;;fill:purple;font-family:Arial" transform="scale(1.0277440987667952,1.0)" text-anchor="middle">Q</text><text x="88.95105214285714" y="212.0" style="font-size:27px;;fill:black;font-family:Arial" transform="scale(1.1523191410415583,1.0)" text-anchor="middle">A</text><text x="99.73299785714286" y="188.0" style="font-size:31px;;fill:purple;font-family:Arial" transform="scale(1.0277440987667952,1.0)" text-anchor="middle">Q</text><text x="221.02988714285715" y="161.0" style="font-size:76px;;fill:black;font-family:Arial" transform="scale(0.46373819090696855,1.0)" text-anchor="middle">P</text><text x="97.62920357142858" y="212.0" style="font-size:21px;;fill:black;font-family:Arial" transform="scale(1.4083900612730156,1.0)" text-anchor="middle">L</text><text x="119.32458214285714" y="192.0" style="font-size:27px;;fill:black;font-family:Arial" transform="scale(1.1523191410415583,1.0)" text-anchor="middle">A</text><text x="296.50350714285713" y="168.0" style="font-size:76px;;fill:black;font-family:Arial" transform="scale(0.46373819090696855,1.0)" text-anchor="middle">V</text><text x="149.69811214285713" y="212.0" style="font-size:27px;;fill:red;font-family:Arial" transform="scale(1.1523191410415583,1.0)" text-anchor="middle">E</text><text x="149.69811214285713" y="188.0" style="font-size:27px;;fill:black;font-family:Arial" transform="scale(1.1523191410415583,1.0)" text-anchor="middle">A</text><text x="154.23441857142856" y="164.0" style="font-size:28px;;fill:black;font-family:Arial" transform="scale(1.1184274015991595,1.0)" text-anchor="middle">V</text><text x="163.30703142857143" y="139.0" style="font-size:30px;;fill:blue;font-family:Arial" transform="scale(1.0562925459547616,1.0)" text-anchor="middle">R</text><text x="180.07164214285714" y="212.0" style="font-size:27px;;fill:black;font-family:Arial" transform="scale(1.1523191410415583,1.0)" text-anchor="middle">A</text><text x="196.44179142857143" y="188.0" style="font-size:30px;;fill:blue;font-family:Arial" transform="scale(1.0562925459547616,1.0)" text-anchor="middle">R</text><text x="425.6238814285714" y="162.0" style="font-size:72px;;fill:green;font-family:Arial" transform="scale(0.4875196365945054,1.0)" text-anchor="middle">S</text><text x="248.7079307142857" y="212.0" style="font-size:33px;;fill:purple;font-family:Arial" transform="scale(0.9750392731890108,1.0)" text-anchor="middle">N</text><text x="797.1408035714286" y="184.0" style="font-size:119px;;fill:green;font-family:Arial" transform="scale(0.30421225323497136,1.0)" text-anchor="middle">S</text><text x="240.81870214285712" y="212.0" style="font-size:27px;;fill:black;font-family:Arial" transform="scale(1.1523191410415583,1.0)" text-anchor="middle">A</text><text x="912.1920535714286" y="188.0" style="font-size:119px;;fill:green;font-family:Arial" transform="scale(0.30421225323497136,1.0)" text-anchor="middle">S</text><text x="221.88455357142857" y="212.0" style="font-size:21px;;fill:black;font-family:Arial" transform="scale(1.4083900612730156,1.0)" text-anchor="middle">L</text><text x="246.53839285714284" y="192.0" style="font-size:24px;;fill:green;font-family:Arial" transform="scale(1.267551055145714,1.0)" text-anchor="middle">S</text><text x="279.41017857142856" y="170.0" style="font-size:28px;;fill:black;font-family:Arial" transform="scale(1.1184274015991595,1.0)" text-anchor="middle">V</text><text x="295.84607142857146" y="145.0" style="font-size:30px;;fill:blue;font-family:Arial" transform="scale(1.0562925459547616,1.0)" text-anchor="middle">R</text><text x="310.7041185714285" y="212.0" style="font-size:28px;;fill:black;font-family:Arial" transform="scale(1.1184274015991595,1.0)" text-anchor="middle">P</text><text x="328.98083142857143" y="187.0" style="font-size:30px;;fill:green;font-family:Arial" transform="scale(1.0562925459547616,1.0)" text-anchor="middle">T</text><text x="749.3452271428572" y="161.0" style="font-size:76px;;fill:blue;font-family:Arial" transform="scale(0.46373819090696855,1.0)" text-anchor="middle">R</text><text x="341.99805857142854" y="212.0" style="font-size:28px;;fill:black;font-family:Arial" transform="scale(1.1184274015991595,1.0)" text-anchor="middle">P</text><text x="362.11559142857146" y="187.0" style="font-size:30px;;fill:green;font-family:Arial" transform="scale(1.0562925459547616,1.0)" text-anchor="middle">T</text><text x="372.17435785714287" y="161.0" style="font-size:31px;;fill:black;font-family:Arial" transform="scale(1.0277440987667952,1.0)" text-anchor="middle">I</text><text x="392.29189071428567" y="134.0" style="font-size:33px;;fill:purple;font-family:Arial" transform="scale(0.9750392731890108,1.0)" text-anchor="middle">N</text></svg>