<?xml version="1.0" encoding="UTF-8"?>
<!DOCTYPE svg PUBLIC "-//W3C//DTD SVG 1.0//EN" "http://www.w3.org/TR/2001/REC-SVG-20010904/DTD/svg10.dtd"><svg contentScriptType="text/ecmascript" width="400" xmlns:xlink="http://www.w3.org/1999/xlink" zoomAndPan="magnify" contentStyleType="text/css" height="450" preserveAspectRatio="xMidYMid meet" xmlns="http://www.w3.org/2000/svg" version="1.0"><text x="20" y="70" style="font-size:14px;fill:black;font-family:Arial" text-anchor="middle">100.0</text><text x="20" y="380" style="font-size:14px;fill:black;font-family:Arial" text-anchor="middle">-100.0</text><text x="20" y="142" style="font-size:14px;fill:black;font-family:Arial" text-anchor="middle">50.0</text><text x="20" y="308" style="font-size:14px;fill:black;font-family:Arial" text-anchor="middle">-50.0</text><text x="67.5" y="231" style="font-size:14px;fill:black;font-family:Arial" text-anchor="middle">-5</text><path style="fill:none;fill-rule:evenodd;stroke:#000000;stroke-width:1px;stroke-linecap:butt;stroke-linejoin:miter;stroke-opacity:1" d="M  84.0,216 L 84.0,235"/><text x="102.5" y="231" style="font-size:14px;fill:black;font-family:Arial" text-anchor="middle">-4</text><path style="fill:none;fill-rule:evenodd;stroke:#000000;stroke-width:1px;stroke-linecap:butt;stroke-linejoin:miter;stroke-opacity:1" d="M  119.0,216 L 119.0,235"/><text x="137.5" y="231" style="font-size:14px;fill:black;font-family:Arial" text-anchor="middle">-3</text><path style="fill:none;fill-rule:evenodd;stroke:#000000;stroke-width:1px;stroke-linecap:butt;stroke-linejoin:miter;stroke-opacity:1" d="M  154.0,216 L 154.0,235"/><text x="172.5" y="231" style="font-size:14px;fill:black;font-family:Arial" text-anchor="middle">-2</text><path style="fill:none;fill-rule:evenodd;stroke:#000000;stroke-width:1px;stroke-linecap:butt;stroke-linejoin:miter;stroke-opacity:1" d="M  189.0,216 L 189.0,235"/><text x="207.5" y="231" style="font-size:14px;fill:black;font-family:Arial" text-anchor="middle">-1</text><path style="fill:none;fill-rule:evenodd;stroke:#000000;stroke-width:1px;stroke-linecap:butt;stroke-linejoin:miter;stroke-opacity:1" d="M  224.0,216 L 224.0,235"/><text x="242.5" y="231" style="font-size:14px;fill:black;font-family:Arial" text-anchor="middle">0</text><path style="fill:none;fill-rule:evenodd;stroke:#000000;stroke-width:1px;stroke-linecap:butt;stroke-linejoin:miter;stroke-opacity:1" d="M  259.0,216 L 259.0,235"/><text x="277.5" y="231" style="font-size:14px;fill:black;font-family:Arial" text-anchor="middle">1</text><path style="fill:none;fill-rule:evenodd;stroke:#000000;stroke-width:1px;stroke-linecap:butt;stroke-linejoin:miter;stroke-opacity:1" d="M  294.0,216 L 294.0,235"/><text x="312.5" y="231" style="font-size:14px;fill:black;font-family:Arial" text-anchor="middle">2</text><path style="fill:none;fill-rule:evenodd;stroke:#000000;stroke-width:1px;stroke-linecap:butt;stroke-linejoin:miter;stroke-opacity:1" d="M  329.0,216 L 329.0,235"/><text x="347.5" y="231" style="font-size:14px;fill:black;font-family:Arial" text-anchor="middle">3</text><path style="fill:none;fill-rule:evenodd;stroke:#000000;stroke-width:1px;stroke-linecap:butt;stroke-linejoin:miter;stroke-opacity:1" d="M  364.0,216 L 364.0,235"/><text x="382.5" y="231" style="font-size:14px;fill:black;font-family:Arial" text-anchor="middle">4</text><path style="fill:none;fill-rule:evenodd;stroke:#000000;stroke-width:1px;stroke-linecap:butt;stroke-linejoin:miter;stroke-opacity:1" d="M  399.0,216 L 399.0,235"/><rect width="1" x="49" height="350" y="50" style="fill:black"/><rect width="350.0" x="49" height="1" y="216" style="fill:black"/><rect width="350.0" x="49" height="1" y="235" style="fill:black"/><path style="fill:none;fill-rule:evenodd;stroke:#000000;stroke-width:1px;stroke-linecap:butt;stroke-linejoin:miter;stroke-opacity:1" d="M  44.5,54 L 49.5,50 L 54.5,54"/><path style="fill:none;fill-rule:evenodd;stroke:#000000;stroke-width:1px;stroke-linecap:butt;stroke-linejoin:miter;stroke-opacity:1" d="M 44.5,396 L 49.5,400 L 54.5,396"/><path style="fill:none;fill-rule:evenodd;stroke:#000000;stroke-width:1px;stroke-linecap:butt;stroke-linejoin:miter;stroke-opacity:1" d="M  49,70 L 44,70 L 44,70"/><path style="fill:none;fill-rule:evenodd;stroke:#000000;stroke-width:1px;stroke-linecap:butt;stroke-linejoin:miter;stroke-opacity:1" d="M  49,142 L 44,142"/><path style="fill:none;fill-rule:evenodd;stroke:#000000;stroke-width:1px;stroke-linecap:butt;stroke-linejoin:miter;stroke-opacity:1" d="M  49,380 L 44,380"/><path style="fill:none;fill-rule:evenodd;stroke:#000000;stroke-width:1px;stroke-linecap:butt;stroke-linejoin:miter;stroke-opacity:1" d="M  49,308 L 44,308"/><text x="-225" y="15" style="font-size:14px;fill:black;font-family:Arial" transform="matrix(0,-1,1,0,0,0)" text-anchor="middle">P value = 0.5</text><text x="-225" y="35" style="font-size:14px;fill:black;font-family:Arial" transform="matrix(0,-1,1,0,0,0)" text-anchor="middle">% difference</text><text x="94.0790507142857" y="212.0" style="font-size:47px;;fill:purple;font-family:Arial" transform="scale(0.7174817293277628,1.0)" text-anchor="middle">Q</text><text x="95.85412714285714" y="174.0" style="font-size:48px;;fill:black;font-family:Arial" transform="scale(0.7041950306365078,1.0)" text-anchor="middle">I</text><text x="101.17935642857142" y="135.0" style="font-size:51px;;fill:green;font-family:Arial" transform="scale(0.667132134287218,1.0)" text-anchor="middle">Y</text><text x="123.9923757142857" y="212.0" style="font-size:40px;;fill:green;font-family:Arial" transform="scale(0.8266637316167701,1.0)" text-anchor="middle">S</text><text x="129.38334857142857" y="179.0" style="font-size:42px;;fill:red;font-family:Arial" transform="scale(0.7922194094660713,1.0)" text-anchor="middle">E</text><text x="129.38334857142857" y="144.0" style="font-size:42px;;fill:black;font-family:Arial" transform="scale(0.7922194094660713,1.0)" text-anchor="middle">A</text><text x="180.79482142857142" y="212.0" style="font-size:44px;;fill:black;font-family:Arial" transform="scale(0.7605306330874284,1.0)" text-anchor="middle">P</text><text x="408.5962964285714" y="176.0" style="font-size:107px;;fill:black;font-family:Arial" transform="scale(0.336517979242225,1.0)" text-anchor="middle">V</text><text x="195.06117642857143" y="212.0" style="font-size:37px;;fill:black;font-family:Arial" transform="scale(0.8843379454504982,1.0)" text-anchor="middle">L</text><text x="231.35162785714283" y="181.0" style="font-size:45px;;fill:blue;font-family:Arial" transform="scale(0.7456182677327731,1.0)" text-anchor="middle">R</text><text x="258.5694664285714" y="144.0" style="font-size:51px;;fill:blue;font-family:Arial" transform="scale(0.667132134287218,1.0)" text-anchor="middle">H</text><text x="251.0089557142857" y="212.0" style="font-size:40px;;fill:green;font-family:Arial" transform="scale(0.8266637316167701,1.0)" text-anchor="middle">S</text><text x="261.9223885714286" y="179.0" style="font-size:42px;;fill:black;font-family:Arial" transform="scale(0.7922194094660713,1.0)" text-anchor="middle">A</text><text x="311.0328364285714" y="144.0" style="font-size:51px;;fill:blue;font-family:Arial" transform="scale(0.667132134287218,1.0)" text-anchor="middle">H</text><text x="293.3478157142857" y="212.0" style="font-size:40px;;fill:green;font-family:Arial" transform="scale(0.8266637316167701,1.0)" text-anchor="middle">S</text><text x="733.3695392857143" y="179.0" style="font-size:109px;;fill:purple;font-family:Arial" transform="scale(0.330665492646708,1.0)" text-anchor="middle">Q</text><text x="335.6866757142857" y="212.0" style="font-size:40px;;fill:green;font-family:Arial" transform="scale(0.8266637316167701,1.0)" text-anchor="middle">S</text><text x="350.2817485714286" y="179.0" style="font-size:42px;;fill:black;font-family:Arial" transform="scale(0.7922194094660713,1.0)" text-anchor="middle">A</text><text x="372.1743578571428" y="144.0" style="font-size:45px;;fill:blue;font-family:Arial" transform="scale(0.7456182677327731,1.0)" text-anchor="middle">K</text><text x="353.37169642857145" y="212.0" style="font-size:37px;;fill:black;font-family:Arial" transform="scale(0.8843379454504982,1.0)" text-anchor="middle">L</text><text x="410.89732142857144" y="181.0" style="font-size:44px;;fill:black;font-family:Arial" transform="scale(0.7605306330874284,1.0)" text-anchor="middle">V</text><text x="419.1152678571428" y="145.0" style="font-size:45px;;fill:blue;font-family:Arial" transform="scale(0.7456182677327731,1.0)" text-anchor="middle">R</text><text x="456.9178214285714" y="212.0" style="font-size:44px;;fill:black;font-family:Arial" transform="scale(0.7605306330874284,1.0)" text-anchor="middle">V</text><text x="466.0561778571428" y="176.0" style="font-size:45px;;fill:blue;font-family:Arial" transform="scale(0.7456182677327731,1.0)" text-anchor="middle">R</text><text x="466.0561778571428" y="139.0" style="font-size:45px;;fill:green;font-family:Arial" transform="scale(0.7456182677327731,1.0)" text-anchor="middle">T</text><text x="462.70325571428566" y="212.0" style="font-size:40px;;fill:green;font-family:Arial" transform="scale(0.8266637316167701,1.0)" text-anchor="middle">S</text><text x="502.93832142857144" y="179.0" style="font-size:44px;;fill:black;font-family:Arial" transform="scale(0.7605306330874284,1.0)" text-anchor="middle">P</text><text x="553.2321535714286" y="143.0" style="font-size:49px;;fill:black;font-family:Arial" transform="scale(0.6913914846249349,1.0)" text-anchor="middle">F</text></svg>