<?xml version="1.0" encoding="UTF-8"?>
<!DOCTYPE svg PUBLIC "-//W3C//DTD SVG 1.0//EN" "http://www.w3.org/TR/2001/REC-SVG-20010904/DTD/svg10.dtd"><svg contentScriptType="text/ecmascript" width="400" xmlns:xlink="http://www.w3.org/1999/xlink" zoomAndPan="magnify" contentStyleType="text/css" height="450" preserveAspectRatio="xMidYMid meet" xmlns="http://www.w3.org/2000/svg" version="1.0"><text x="20" y="70" style="font-size:14px;fill:black;font-family:Arial" text-anchor="middle">100.0</text><text x="20" y="380" style="font-size:14px;fill:black;font-family:Arial" text-anchor="middle">-100.0</text><text x="20" y="142" style="font-size:14px;fill:black;font-family:Arial" text-anchor="middle">50.0</text><text x="20" y="308" style="font-size:14px;fill:black;font-family:Arial" text-anchor="middle">-50.0</text><text x="67.5" y="231" style="font-size:14px;fill:black;font-family:Arial" text-anchor="middle">-5</text><path style="fill:none;fill-rule:evenodd;stroke:#000000;stroke-width:1px;stroke-linecap:butt;stroke-linejoin:miter;stroke-opacity:1" d="M  84.0,216 L 84.0,235"/><text x="102.5" y="231" style="font-size:14px;fill:black;font-family:Arial" text-anchor="middle">-4</text><path style="fill:none;fill-rule:evenodd;stroke:#000000;stroke-width:1px;stroke-linecap:butt;stroke-linejoin:miter;stroke-opacity:1" d="M  119.0,216 L 119.0,235"/><text x="137.5" y="231" style="font-size:14px;fill:black;font-family:Arial" text-anchor="middle">-3</text><path style="fill:none;fill-rule:evenodd;stroke:#000000;stroke-width:1px;stroke-linecap:butt;stroke-linejoin:miter;stroke-opacity:1" d="M  154.0,216 L 154.0,235"/><text x="172.5" y="231" style="font-size:14px;fill:black;font-family:Arial" text-anchor="middle">-2</text><path style="fill:none;fill-rule:evenodd;stroke:#000000;stroke-width:1px;stroke-linecap:butt;stroke-linejoin:miter;stroke-opacity:1" d="M  189.0,216 L 189.0,235"/><text x="207.5" y="231" style="font-size:14px;fill:black;font-family:Arial" text-anchor="middle">-1</text><path style="fill:none;fill-rule:evenodd;stroke:#000000;stroke-width:1px;stroke-linecap:butt;stroke-linejoin:miter;stroke-opacity:1" d="M  224.0,216 L 224.0,235"/><text x="242.5" y="231" style="font-size:14px;fill:black;font-family:Arial" text-anchor="middle">0</text><path style="fill:none;fill-rule:evenodd;stroke:#000000;stroke-width:1px;stroke-linecap:butt;stroke-linejoin:miter;stroke-opacity:1" d="M  259.0,216 L 259.0,235"/><text x="277.5" y="231" style="font-size:14px;fill:black;font-family:Arial" text-anchor="middle">1</text><path style="fill:none;fill-rule:evenodd;stroke:#000000;stroke-width:1px;stroke-linecap:butt;stroke-linejoin:miter;stroke-opacity:1" d="M  294.0,216 L 294.0,235"/><text x="312.5" y="231" style="font-size:14px;fill:black;font-family:Arial" text-anchor="middle">2</text><path style="fill:none;fill-rule:evenodd;stroke:#000000;stroke-width:1px;stroke-linecap:butt;stroke-linejoin:miter;stroke-opacity:1" d="M  329.0,216 L 329.0,235"/><text x="347.5" y="231" style="font-size:14px;fill:black;font-family:Arial" text-anchor="middle">3</text><path style="fill:none;fill-rule:evenodd;stroke:#000000;stroke-width:1px;stroke-linecap:butt;stroke-linejoin:miter;stroke-opacity:1" d="M  364.0,216 L 364.0,235"/><text x="382.5" y="231" style="font-size:14px;fill:black;font-family:Arial" text-anchor="middle">4</text><path style="fill:none;fill-rule:evenodd;stroke:#000000;stroke-width:1px;stroke-linecap:butt;stroke-linejoin:miter;stroke-opacity:1" d="M  399.0,216 L 399.0,235"/><rect width="1" x="49" height="350" y="50" style="fill:black"/><rect width="350.0" x="49" height="1" y="216" style="fill:black"/><rect width="350.0" x="49" height="1" y="235" style="fill:black"/><path style="fill:none;fill-rule:evenodd;stroke:#000000;stroke-width:1px;stroke-linecap:butt;stroke-linejoin:miter;stroke-opacity:1" d="M  44.5,54 L 49.5,50 L 54.5,54"/><path style="fill:none;fill-rule:evenodd;stroke:#000000;stroke-width:1px;stroke-linecap:butt;stroke-linejoin:miter;stroke-opacity:1" d="M 44.5,396 L 49.5,400 L 54.5,396"/><path style="fill:none;fill-rule:evenodd;stroke:#000000;stroke-width:1px;stroke-linecap:butt;stroke-linejoin:miter;stroke-opacity:1" d="M  49,70 L 44,70 L 44,70"/><path style="fill:none;fill-rule:evenodd;stroke:#000000;stroke-width:1px;stroke-linecap:butt;stroke-linejoin:miter;stroke-opacity:1" d="M  49,142 L 44,142"/><path style="fill:none;fill-rule:evenodd;stroke:#000000;stroke-width:1px;stroke-linecap:butt;stroke-linejoin:miter;stroke-opacity:1" d="M  49,380 L 44,380"/><path style="fill:none;fill-rule:evenodd;stroke:#000000;stroke-width:1px;stroke-linecap:butt;stroke-linejoin:miter;stroke-opacity:1" d="M  49,308 L 44,308"/><text x="-225" y="15" style="font-size:14px;fill:black;font-family:Arial" transform="matrix(0,-1,1,0,0,0)" text-anchor="middle">P value = 0.5</text><text x="-225" y="35" style="font-size:14px;fill:black;font-family:Arial" transform="matrix(0,-1,1,0,0,0)" text-anchor="middle">% difference</text><text x="131.35565571428572" y="212.0" style="font-size:68px;;fill:black;font-family:Arial" transform="scale(0.5138720493833976,1.0)" text-anchor="middle">L</text><text x="145.55626714285714" y="159.0" style="font-size:76px;;fill:black;font-family:Arial" transform="scale(0.46373819090696855,1.0)" text-anchor="middle">P</text><text x="91.64653857142856" y="212.0" style="font-size:28px;;fill:black;font-family:Arial" transform="scale(1.1184274015991595,1.0)" text-anchor="middle">V</text><text x="97.03751142857143" y="187.0" style="font-size:30px;;fill:blue;font-family:Arial" transform="scale(1.0562925459547616,1.0)" text-anchor="middle">R</text><text x="221.02988714285715" y="161.0" style="font-size:76px;;fill:black;font-family:Arial" transform="scale(0.46373819090696855,1.0)" text-anchor="middle">P</text><text x="119.32458214285714" y="212.0" style="font-size:27px;;fill:black;font-family:Arial" transform="scale(1.1523191410415583,1.0)" text-anchor="middle">A</text><text x="122.94047857142856" y="188.0" style="font-size:28px;;fill:black;font-family:Arial" transform="scale(1.1184274015991595,1.0)" text-anchor="middle">P</text><text x="122.94047857142856" y="163.0" style="font-size:28px;;fill:black;font-family:Arial" transform="scale(1.1184274015991595,1.0)" text-anchor="middle">V</text><text x="130.17227142857143" y="138.0" style="font-size:30px;;fill:blue;font-family:Arial" transform="scale(1.0562925459547616,1.0)" text-anchor="middle">R</text><text x="154.23441857142856" y="212.0" style="font-size:28px;;fill:black;font-family:Arial" transform="scale(1.1184274015991595,1.0)" text-anchor="middle">V</text><text x="163.30703142857143" y="187.0" style="font-size:30px;;fill:blue;font-family:Arial" transform="scale(1.0562925459547616,1.0)" text-anchor="middle">R</text><text x="367.4408207142857" y="161.0" style="font-size:75px;;fill:black;font-family:Arial" transform="scale(0.4694633537576719,1.0)" text-anchor="middle">A</text><text x="163.70149285714285" y="212.0" style="font-size:24px;;fill:green;font-family:Arial" transform="scale(1.267551055145714,1.0)" text-anchor="middle">S</text><text x="196.44179142857143" y="190.0" style="font-size:30px;;fill:blue;font-family:Arial" transform="scale(1.0562925459547616,1.0)" text-anchor="middle">R</text><text x="441.9940307142857" y="164.0" style="font-size:75px;;fill:black;font-family:Arial" transform="scale(0.4694633537576719,1.0)" text-anchor="middle">A</text><text x="497.4158614285714" y="212.0" style="font-size:72px;;fill:green;font-family:Arial" transform="scale(0.4875196365945054,1.0)" text-anchor="middle">S</text><text x="516.5472407142856" y="156.0" style="font-size:75px;;fill:black;font-family:Arial" transform="scale(0.4694633537576719,1.0)" text-anchor="middle">A</text><text x="197.03348357142858" y="212.0" style="font-size:21px;;fill:black;font-family:Arial" transform="scale(1.4083900612730156,1.0)" text-anchor="middle">L</text><text x="248.11623857142854" y="192.0" style="font-size:28px;;fill:black;font-family:Arial" transform="scale(1.1184274015991595,1.0)" text-anchor="middle">V</text><text x="569.2078414285714" y="167.0" style="font-size:72px;;fill:green;font-family:Arial" transform="scale(0.4875196365945054,1.0)" text-anchor="middle">S</text><text x="246.53839285714284" y="212.0" style="font-size:24px;;fill:green;font-family:Arial" transform="scale(1.267551055145714,1.0)" text-anchor="middle">S</text><text x="295.84607142857146" y="190.0" style="font-size:30px;;fill:blue;font-family:Arial" transform="scale(1.0562925459547616,1.0)" text-anchor="middle">R</text><text x="608.1280357142857" y="164.0" style="font-size:68px;;fill:black;font-family:Arial" transform="scale(0.5138720493833976,1.0)" text-anchor="middle">L</text><text x="246.7356235714286" y="212.0" style="font-size:21px;;fill:black;font-family:Arial" transform="scale(1.4083900612730156,1.0)" text-anchor="middle">L</text><text x="310.7041185714285" y="192.0" style="font-size:28px;;fill:black;font-family:Arial" transform="scale(1.1184274015991595,1.0)" text-anchor="middle">P</text><text x="328.98083142857143" y="167.0" style="font-size:30px;;fill:blue;font-family:Arial" transform="scale(1.0562925459547616,1.0)" text-anchor="middle">R</text><text x="356.3959007142857" y="141.0" style="font-size:33px;;fill:purple;font-family:Arial" transform="scale(0.9750392731890108,1.0)" text-anchor="middle">N</text><text x="362.11559142857146" y="212.0" style="font-size:30px;;fill:blue;font-family:Arial" transform="scale(1.0562925459547616,1.0)" text-anchor="middle">R</text><text x="372.17435785714287" y="186.0" style="font-size:31px;;fill:red;font-family:Arial" transform="scale(1.0277440987667952,1.0)" text-anchor="middle">D</text><text x="372.17435785714287" y="159.0" style="font-size:31px;;fill:purple;font-family:Arial" transform="scale(1.0277440987667952,1.0)" text-anchor="middle">Q</text><text x="392.29189071428567" y="132.0" style="font-size:33px;;fill:purple;font-family:Arial" transform="scale(0.9750392731890108,1.0)" text-anchor="middle">N</text></svg>