<?xml version="1.0" encoding="UTF-8"?>
<!DOCTYPE svg PUBLIC "-//W3C//DTD SVG 1.0//EN" "http://www.w3.org/TR/2001/REC-SVG-20010904/DTD/svg10.dtd"><svg contentScriptType="text/ecmascript" width="400" xmlns:xlink="http://www.w3.org/1999/xlink" zoomAndPan="magnify" contentStyleType="text/css" height="450" preserveAspectRatio="xMidYMid meet" xmlns="http://www.w3.org/2000/svg" version="1.0"><text x="20" y="70" style="font-size:14px;fill:black;font-family:Arial" text-anchor="middle">100.0</text><text x="20" y="380" style="font-size:14px;fill:black;font-family:Arial" text-anchor="middle">-100.0</text><text x="20" y="142" style="font-size:14px;fill:black;font-family:Arial" text-anchor="middle">50.0</text><text x="20" y="308" style="font-size:14px;fill:black;font-family:Arial" text-anchor="middle">-50.0</text><text x="67.5" y="231" style="font-size:14px;fill:black;font-family:Arial" text-anchor="middle">-5</text><path style="fill:none;fill-rule:evenodd;stroke:#000000;stroke-width:1px;stroke-linecap:butt;stroke-linejoin:miter;stroke-opacity:1" d="M  84.0,216 L 84.0,235"/><text x="102.5" y="231" style="font-size:14px;fill:black;font-family:Arial" text-anchor="middle">-4</text><path style="fill:none;fill-rule:evenodd;stroke:#000000;stroke-width:1px;stroke-linecap:butt;stroke-linejoin:miter;stroke-opacity:1" d="M  119.0,216 L 119.0,235"/><text x="137.5" y="231" style="font-size:14px;fill:black;font-family:Arial" text-anchor="middle">-3</text><path style="fill:none;fill-rule:evenodd;stroke:#000000;stroke-width:1px;stroke-linecap:butt;stroke-linejoin:miter;stroke-opacity:1" d="M  154.0,216 L 154.0,235"/><text x="172.5" y="231" style="font-size:14px;fill:black;font-family:Arial" text-anchor="middle">-2</text><path style="fill:none;fill-rule:evenodd;stroke:#000000;stroke-width:1px;stroke-linecap:butt;stroke-linejoin:miter;stroke-opacity:1" d="M  189.0,216 L 189.0,235"/><text x="207.5" y="231" style="font-size:14px;fill:black;font-family:Arial" text-anchor="middle">-1</text><path style="fill:none;fill-rule:evenodd;stroke:#000000;stroke-width:1px;stroke-linecap:butt;stroke-linejoin:miter;stroke-opacity:1" d="M  224.0,216 L 224.0,235"/><text x="242.5" y="231" style="font-size:14px;fill:black;font-family:Arial" text-anchor="middle">0</text><path style="fill:none;fill-rule:evenodd;stroke:#000000;stroke-width:1px;stroke-linecap:butt;stroke-linejoin:miter;stroke-opacity:1" d="M  259.0,216 L 259.0,235"/><text x="277.5" y="231" style="font-size:14px;fill:black;font-family:Arial" text-anchor="middle">1</text><path style="fill:none;fill-rule:evenodd;stroke:#000000;stroke-width:1px;stroke-linecap:butt;stroke-linejoin:miter;stroke-opacity:1" d="M  294.0,216 L 294.0,235"/><text x="312.5" y="231" style="font-size:14px;fill:black;font-family:Arial" text-anchor="middle">2</text><path style="fill:none;fill-rule:evenodd;stroke:#000000;stroke-width:1px;stroke-linecap:butt;stroke-linejoin:miter;stroke-opacity:1" d="M  329.0,216 L 329.0,235"/><text x="347.5" y="231" style="font-size:14px;fill:black;font-family:Arial" text-anchor="middle">3</text><path style="fill:none;fill-rule:evenodd;stroke:#000000;stroke-width:1px;stroke-linecap:butt;stroke-linejoin:miter;stroke-opacity:1" d="M  364.0,216 L 364.0,235"/><text x="382.5" y="231" style="font-size:14px;fill:black;font-family:Arial" text-anchor="middle">4</text><path style="fill:none;fill-rule:evenodd;stroke:#000000;stroke-width:1px;stroke-linecap:butt;stroke-linejoin:miter;stroke-opacity:1" d="M  399.0,216 L 399.0,235"/><rect width="1" x="49" height="350" y="50" style="fill:black"/><rect width="350.0" x="49" height="1" y="216" style="fill:black"/><rect width="350.0" x="49" height="1" y="235" style="fill:black"/><path style="fill:none;fill-rule:evenodd;stroke:#000000;stroke-width:1px;stroke-linecap:butt;stroke-linejoin:miter;stroke-opacity:1" d="M  44.5,54 L 49.5,50 L 54.5,54"/><path style="fill:none;fill-rule:evenodd;stroke:#000000;stroke-width:1px;stroke-linecap:butt;stroke-linejoin:miter;stroke-opacity:1" d="M 44.5,396 L 49.5,400 L 54.5,396"/><path style="fill:none;fill-rule:evenodd;stroke:#000000;stroke-width:1px;stroke-linecap:butt;stroke-linejoin:miter;stroke-opacity:1" d="M  49,70 L 44,70 L 44,70"/><path style="fill:none;fill-rule:evenodd;stroke:#000000;stroke-width:1px;stroke-linecap:butt;stroke-linejoin:miter;stroke-opacity:1" d="M  49,142 L 44,142"/><path style="fill:none;fill-rule:evenodd;stroke:#000000;stroke-width:1px;stroke-linecap:butt;stroke-linejoin:miter;stroke-opacity:1" d="M  49,380 L 44,380"/><path style="fill:none;fill-rule:evenodd;stroke:#000000;stroke-width:1px;stroke-linecap:butt;stroke-linejoin:miter;stroke-opacity:1" d="M  49,308 L 44,308"/><text x="-225" y="15" style="font-size:14px;fill:black;font-family:Arial" transform="matrix(0,-1,1,0,0,0)" text-anchor="middle">P value = 0.5</text><text x="-225" y="35" style="font-size:14px;fill:black;font-family:Arial" transform="matrix(0,-1,1,0,0,0)" text-anchor="middle">% difference</text><text x="131.35565571428572" y="212.0" style="font-size:68px;;fill:black;font-family:Arial" transform="scale(0.5138720493833976,1.0)" text-anchor="middle">L</text><text x="156.2067257142857" y="159.0" style="font-size:82px;;fill:green;font-family:Arial" transform="scale(0.43211967789058436,1.0)" text-anchor="middle">Y</text><text x="199.46599571428573" y="212.0" style="font-size:68px;;fill:black;font-family:Arial" transform="scale(0.5138720493833976,1.0)" text-anchor="middle">L</text><text x="223.72537357142858" y="159.0" style="font-size:77px;;fill:red;font-family:Arial" transform="scale(0.4581509837876075,1.0)" text-anchor="middle">D</text><text x="282.0399214285714" y="212.0" style="font-size:72px;;fill:green;font-family:Arial" transform="scale(0.4875196365945054,1.0)" text-anchor="middle">S</text><text x="300.11940357142856" y="156.0" style="font-size:77px;;fill:red;font-family:Arial" transform="scale(0.4581509837876075,1.0)" text-anchor="middle">D</text><text x="353.8319014285714" y="212.0" style="font-size:72px;;fill:green;font-family:Arial" transform="scale(0.4875196365945054,1.0)" text-anchor="middle">S</text><text x="371.97712714285717" y="156.0" style="font-size:76px;;fill:blue;font-family:Arial" transform="scale(0.46373819090696855,1.0)" text-anchor="middle">R</text><text x="965.8388078571428" y="212.0" style="font-size:171px;;fill:blue;font-family:Arial" transform="scale(0.2148391618891041,1.0)" text-anchor="middle">R</text><text x="516.5472407142856" y="212.0" style="font-size:75px;;fill:black;font-family:Arial" transform="scale(0.4694633537576719,1.0)" text-anchor="middle">A</text><text x="522.9243671428571" y="154.0" style="font-size:76px;;fill:blue;font-family:Arial" transform="scale(0.46373819090696855,1.0)" text-anchor="middle">R</text><text x="591.1004507142857" y="212.0" style="font-size:75px;;fill:black;font-family:Arial" transform="scale(0.4694633537576719,1.0)" text-anchor="middle">A</text><text x="620.2905964285713" y="154.0" style="font-size:79px;;fill:purple;font-family:Arial" transform="scale(0.4473709606396638,1.0)" text-anchor="middle">Q</text><text x="682.0895535714286" y="212.0" style="font-size:77px;;fill:red;font-family:Arial" transform="scale(0.4581509837876075,1.0)" text-anchor="middle">D</text><text x="698.5254464285714" y="152.0" style="font-size:79px;;fill:purple;font-family:Arial" transform="scale(0.4473709606396638,1.0)" text-anchor="middle">Q</text><text x="758.4835835714285" y="212.0" style="font-size:77px;;fill:red;font-family:Arial" transform="scale(0.4581509837876075,1.0)" text-anchor="middle">D</text><text x="785.8986528571429" y="152.0" style="font-size:80px;;fill:black;font-family:Arial" transform="scale(0.4421689727252491,1.0)" text-anchor="middle">F</text><text x="824.8188471428572" y="212.0" style="font-size:76px;;fill:black;font-family:Arial" transform="scale(0.46373819090696855,1.0)" text-anchor="middle">V</text><text x="865.0539128571429" y="153.0" style="font-size:80px;;fill:black;font-family:Arial" transform="scale(0.4421689727252491,1.0)" text-anchor="middle">F</text></svg>