<?xml version="1.0" encoding="UTF-8"?>
<!DOCTYPE svg PUBLIC "-//W3C//DTD SVG 1.0//EN" "http://www.w3.org/TR/2001/REC-SVG-20010904/DTD/svg10.dtd"><svg contentScriptType="text/ecmascript" width="400" xmlns:xlink="http://www.w3.org/1999/xlink" zoomAndPan="magnify" contentStyleType="text/css" height="450" preserveAspectRatio="xMidYMid meet" xmlns="http://www.w3.org/2000/svg" version="1.0"><text x="20" y="70" style="font-size:14px;fill:black;font-family:Arial" text-anchor="middle">100.0</text><text x="20" y="380" style="font-size:14px;fill:black;font-family:Arial" text-anchor="middle">-100.0</text><text x="20" y="142" style="font-size:14px;fill:black;font-family:Arial" text-anchor="middle">50.0</text><text x="20" y="308" style="font-size:14px;fill:black;font-family:Arial" text-anchor="middle">-50.0</text><text x="67.5" y="231" style="font-size:14px;fill:black;font-family:Arial" text-anchor="middle">-5</text><path style="fill:none;fill-rule:evenodd;stroke:#000000;stroke-width:1px;stroke-linecap:butt;stroke-linejoin:miter;stroke-opacity:1" d="M  84.0,216 L 84.0,235"/><text x="102.5" y="231" style="font-size:14px;fill:black;font-family:Arial" text-anchor="middle">-4</text><path style="fill:none;fill-rule:evenodd;stroke:#000000;stroke-width:1px;stroke-linecap:butt;stroke-linejoin:miter;stroke-opacity:1" d="M  119.0,216 L 119.0,235"/><text x="137.5" y="231" style="font-size:14px;fill:black;font-family:Arial" text-anchor="middle">-3</text><path style="fill:none;fill-rule:evenodd;stroke:#000000;stroke-width:1px;stroke-linecap:butt;stroke-linejoin:miter;stroke-opacity:1" d="M  154.0,216 L 154.0,235"/><text x="172.5" y="231" style="font-size:14px;fill:black;font-family:Arial" text-anchor="middle">-2</text><path style="fill:none;fill-rule:evenodd;stroke:#000000;stroke-width:1px;stroke-linecap:butt;stroke-linejoin:miter;stroke-opacity:1" d="M  189.0,216 L 189.0,235"/><text x="207.5" y="231" style="font-size:14px;fill:black;font-family:Arial" text-anchor="middle">-1</text><path style="fill:none;fill-rule:evenodd;stroke:#000000;stroke-width:1px;stroke-linecap:butt;stroke-linejoin:miter;stroke-opacity:1" d="M  224.0,216 L 224.0,235"/><text x="242.5" y="231" style="font-size:14px;fill:black;font-family:Arial" text-anchor="middle">0</text><path style="fill:none;fill-rule:evenodd;stroke:#000000;stroke-width:1px;stroke-linecap:butt;stroke-linejoin:miter;stroke-opacity:1" d="M  259.0,216 L 259.0,235"/><text x="277.5" y="231" style="font-size:14px;fill:black;font-family:Arial" text-anchor="middle">1</text><path style="fill:none;fill-rule:evenodd;stroke:#000000;stroke-width:1px;stroke-linecap:butt;stroke-linejoin:miter;stroke-opacity:1" d="M  294.0,216 L 294.0,235"/><text x="312.5" y="231" style="font-size:14px;fill:black;font-family:Arial" text-anchor="middle">2</text><path style="fill:none;fill-rule:evenodd;stroke:#000000;stroke-width:1px;stroke-linecap:butt;stroke-linejoin:miter;stroke-opacity:1" d="M  329.0,216 L 329.0,235"/><text x="347.5" y="231" style="font-size:14px;fill:black;font-family:Arial" text-anchor="middle">3</text><path style="fill:none;fill-rule:evenodd;stroke:#000000;stroke-width:1px;stroke-linecap:butt;stroke-linejoin:miter;stroke-opacity:1" d="M  364.0,216 L 364.0,235"/><text x="382.5" y="231" style="font-size:14px;fill:black;font-family:Arial" text-anchor="middle">4</text><path style="fill:none;fill-rule:evenodd;stroke:#000000;stroke-width:1px;stroke-linecap:butt;stroke-linejoin:miter;stroke-opacity:1" d="M  399.0,216 L 399.0,235"/><rect width="1" x="49" height="350" y="50" style="fill:black"/><rect width="350.0" x="49" height="1" y="216" style="fill:black"/><rect width="350.0" x="49" height="1" y="235" style="fill:black"/><path style="fill:none;fill-rule:evenodd;stroke:#000000;stroke-width:1px;stroke-linecap:butt;stroke-linejoin:miter;stroke-opacity:1" d="M  44.5,54 L 49.5,50 L 54.5,54"/><path style="fill:none;fill-rule:evenodd;stroke:#000000;stroke-width:1px;stroke-linecap:butt;stroke-linejoin:miter;stroke-opacity:1" d="M 44.5,396 L 49.5,400 L 54.5,396"/><path style="fill:none;fill-rule:evenodd;stroke:#000000;stroke-width:1px;stroke-linecap:butt;stroke-linejoin:miter;stroke-opacity:1" d="M  49,70 L 44,70 L 44,70"/><path style="fill:none;fill-rule:evenodd;stroke:#000000;stroke-width:1px;stroke-linecap:butt;stroke-linejoin:miter;stroke-opacity:1" d="M  49,142 L 44,142"/><path style="fill:none;fill-rule:evenodd;stroke:#000000;stroke-width:1px;stroke-linecap:butt;stroke-linejoin:miter;stroke-opacity:1" d="M  49,380 L 44,380"/><path style="fill:none;fill-rule:evenodd;stroke:#000000;stroke-width:1px;stroke-linecap:butt;stroke-linejoin:miter;stroke-opacity:1" d="M  49,308 L 44,308"/><text x="-225" y="15" style="font-size:14px;fill:black;font-family:Arial" transform="matrix(0,-1,1,0,0,0)" text-anchor="middle">P value = 0.5</text><text x="-225" y="35" style="font-size:14px;fill:black;font-family:Arial" transform="matrix(0,-1,1,0,0,0)" text-anchor="middle">% difference</text><text x="14.200611428571428" y="212.0" style="font-size:2px;;fill:black;font-family:Arial" transform="scale(4.753316456796428,1.0)" text-anchor="middle">F</text><text x="15.975687857142859" y="206.0" style="font-size:3px;;fill:black;font-family:Arial" transform="scale(4.2251701838190465,1.0)" text-anchor="middle">V</text><text x="24.25937785714286" y="212.0" style="font-size:3px;;fill:black;font-family:Arial" transform="scale(4.2251701838190465,1.0)" text-anchor="middle">V</text><text x="24.25937785714286" y="205.0" style="font-size:3px;;fill:black;font-family:Arial" transform="scale(4.2251701838190465,1.0)" text-anchor="middle">A</text><text x="28.927171428571427" y="212.0" style="font-size:2px;;fill:purple;font-family:Arial" transform="scale(4.753316456796428,1.0)" text-anchor="middle">N</text><text x="28.927171428571427" y="206.0" style="font-size:2px;;fill:black;font-family:Arial" transform="scale(4.753316456796428,1.0)" text-anchor="middle">P</text><text x="68.04459642857142" y="212.0" style="font-size:9px;;fill:black;font-family:Arial" transform="scale(2.535102110291428,1.0)" text-anchor="middle">V</text><text x="167.84333785714287" y="201.0" style="font-size:31px;;fill:black;font-family:Arial" transform="scale(1.0277440987667952,1.0)" text-anchor="middle">L</text><text x="98.22089571428572" y="212.0" style="font-size:12px;;fill:blue;font-family:Arial" transform="scale(2.1125850919095233,1.0)" text-anchor="middle">K</text><text x="70.14839071428571" y="212.0" style="font-size:5px;;fill:green;font-family:Arial" transform="scale(3.456957423124675,1.0)" text-anchor="middle">T</text><text x="114.78827571428572" y="204.0" style="font-size:12px;;fill:green;font-family:Arial" transform="scale(2.1125850919095233,1.0)" text-anchor="middle">S</text><text x="58.380291428571425" y="212.0" style="font-size:2px;;fill:black;font-family:Arial" transform="scale(4.753316456796428,1.0)" text-anchor="middle">P</text><text x="87.57043714285714" y="206.0" style="font-size:6px;;fill:green;font-family:Arial" transform="scale(3.168877637864285,1.0)" text-anchor="middle">S</text><text x="246.53839285714284" y="212.0" style="font-size:24px;;fill:black;font-family:Arial" transform="scale(1.267551055145714,1.0)" text-anchor="middle">P</text><text x="100.52192071428571" y="212.0" style="font-size:5px;;fill:black;font-family:Arial" transform="scale(3.456957423124675,1.0)" text-anchor="middle">P</text><text x="110.64643071428571" y="212.0" style="font-size:5px;;fill:green;font-family:Arial" transform="scale(3.456957423124675,1.0)" text-anchor="middle">S</text><text x="14.200611428571428" y="241.0" style="font-size:2px;;fill:black;font-family:Arial" transform="scale(4.753316456796428,1.0)" text-anchor="middle">P</text><text x="15.975687857142859" y="248.0" style="font-size:3px;;fill:red;font-family:Arial" transform="scale(4.2251701838190465,1.0)" text-anchor="middle">E</text><text x="32.54306785714286" y="242.0" style="font-size:3px;;fill:black;font-family:Arial" transform="scale(4.2251701838190465,1.0)" text-anchor="middle">L</text><text x="36.29045142857142" y="241.0" style="font-size:2px;;fill:black;font-family:Arial" transform="scale(4.753316456796428,1.0)" text-anchor="middle">P</text><text x="40.82675785714286" y="248.0" style="font-size:3px;;fill:black;font-family:Arial" transform="scale(4.2251701838190465,1.0)" text-anchor="middle">A</text><text x="49.11044785714286" y="242.0" style="font-size:3px;;fill:red;font-family:Arial" transform="scale(4.2251701838190465,1.0)" text-anchor="middle">E</text><text x="51.01701142857142" y="241.0" style="font-size:2px;;fill:black;font-family:Arial" transform="scale(4.753316456796428,1.0)" text-anchor="middle">P</text><text x="65.74357142857143" y="241.0" style="font-size:2px;fill:pink;background-color:black;font-family:Arial" transform="scale(4.753316456796428,1.0)" text-anchor="middle">Q</text><text x="98.61535714285715" y="250.0" style="font-size:6px;;fill:green;font-family:Arial" transform="scale(3.168877637864285,1.0)" text-anchor="middle">S</text></svg>